<mxfile host="app.diagrams.net" agent="Mozilla/5.0 (Windows NT 10.0; Win64; x64) AppleWebKit/537.36 (KHTML, like Gecko) Chrome/135.0.0.0 Safari/537.36" version="26.1.3">
  <diagram name="第 1 页" id="hVpuzf0cs5-q520rvy3v">
    <mxGraphModel dx="545" dy="263" grid="1" gridSize="10" guides="1" tooltips="1" connect="1" arrows="1" fold="1" page="1" pageScale="1" pageWidth="827" pageHeight="1169" math="0" shadow="0">
      <root>
        <mxCell id="0" />
        <mxCell id="1" parent="0" />
        <mxCell id="QpHExHwspOhf1drX-hT4-21" style="edgeStyle=orthogonalEdgeStyle;rounded=0;orthogonalLoop=1;jettySize=auto;html=1;entryX=0.5;entryY=0;entryDx=0;entryDy=0;fontFamily=宋体;fontSize=13;" parent="1" source="QpHExHwspOhf1drX-hT4-1" target="QpHExHwspOhf1drX-hT4-2" edge="1">
          <mxGeometry relative="1" as="geometry" />
        </mxCell>
        <mxCell id="QpHExHwspOhf1drX-hT4-1" value="开始" style="rounded=1;whiteSpace=wrap;html=1;fontFamily=宋体;fontSize=13;" parent="1" vertex="1">
          <mxGeometry x="226.5" y="120" width="80" height="30" as="geometry" />
        </mxCell>
        <mxCell id="QpHExHwspOhf1drX-hT4-22" style="edgeStyle=orthogonalEdgeStyle;rounded=0;orthogonalLoop=1;jettySize=auto;html=1;entryX=0.5;entryY=0;entryDx=0;entryDy=0;fontFamily=宋体;fontSize=13;" parent="1" source="QpHExHwspOhf1drX-hT4-2" target="QpHExHwspOhf1drX-hT4-3" edge="1">
          <mxGeometry relative="1" as="geometry" />
        </mxCell>
        <mxCell id="QpHExHwspOhf1drX-hT4-2" value="上传视频" style="rounded=0;whiteSpace=wrap;html=1;fontFamily=宋体;fontSize=13;" parent="1" vertex="1">
          <mxGeometry x="206.5" y="174" width="120" height="30" as="geometry" />
        </mxCell>
        <mxCell id="QpHExHwspOhf1drX-hT4-26" style="edgeStyle=orthogonalEdgeStyle;rounded=0;orthogonalLoop=1;jettySize=auto;html=1;entryX=0.5;entryY=0;entryDx=0;entryDy=0;exitX=0;exitY=0.5;exitDx=0;exitDy=0;fontFamily=宋体;fontSize=13;" parent="1" source="QpHExHwspOhf1drX-hT4-3" target="QpHExHwspOhf1drX-hT4-6" edge="1">
          <mxGeometry relative="1" as="geometry">
            <mxPoint x="208.5" y="272" as="sourcePoint" />
            <Array as="points">
              <mxPoint x="200.5" y="257" />
            </Array>
          </mxGeometry>
        </mxCell>
        <mxCell id="QpHExHwspOhf1drX-hT4-40" value="是" style="edgeLabel;html=1;align=center;verticalAlign=middle;resizable=0;points=[];fontFamily=宋体;fontSize=13;" parent="QpHExHwspOhf1drX-hT4-26" vertex="1" connectable="0">
          <mxGeometry x="0.0991" y="-1" relative="1" as="geometry">
            <mxPoint as="offset" />
          </mxGeometry>
        </mxCell>
        <mxCell id="QpHExHwspOhf1drX-hT4-35" style="edgeStyle=orthogonalEdgeStyle;rounded=0;orthogonalLoop=1;jettySize=auto;html=1;entryX=0.5;entryY=0;entryDx=0;entryDy=0;exitX=1;exitY=0.5;exitDx=0;exitDy=0;fontFamily=宋体;fontSize=13;" parent="1" source="QpHExHwspOhf1drX-hT4-3" edge="1">
          <mxGeometry relative="1" as="geometry">
            <mxPoint x="306.46341463414615" y="272.02439024390253" as="sourcePoint" />
            <mxPoint x="331.5" y="399.5" as="targetPoint" />
            <Array as="points">
              <mxPoint x="331.5" y="257" />
            </Array>
          </mxGeometry>
        </mxCell>
        <mxCell id="QpHExHwspOhf1drX-hT4-41" value="否" style="edgeLabel;html=1;align=center;verticalAlign=middle;resizable=0;points=[];fontFamily=宋体;fontSize=13;" parent="QpHExHwspOhf1drX-hT4-35" vertex="1" connectable="0">
          <mxGeometry x="-0.4297" y="-3" relative="1" as="geometry">
            <mxPoint x="1" as="offset" />
          </mxGeometry>
        </mxCell>
        <mxCell id="QpHExHwspOhf1drX-hT4-3" value="校验合格" style="rhombus;whiteSpace=wrap;html=1;fontFamily=宋体;fontSize=13;" parent="1" vertex="1">
          <mxGeometry x="221.5" y="227" width="90" height="60" as="geometry" />
        </mxCell>
        <mxCell id="QpHExHwspOhf1drX-hT4-16" style="edgeStyle=orthogonalEdgeStyle;rounded=0;orthogonalLoop=1;jettySize=auto;html=1;entryX=0.5;entryY=0;entryDx=0;entryDy=0;fontFamily=宋体;fontSize=13;" parent="1" source="QpHExHwspOhf1drX-hT4-6" target="QpHExHwspOhf1drX-hT4-7" edge="1">
          <mxGeometry relative="1" as="geometry" />
        </mxCell>
        <mxCell id="QpHExHwspOhf1drX-hT4-6" value="视频预处理" style="rounded=0;whiteSpace=wrap;html=1;fontFamily=宋体;fontSize=13;" parent="1" vertex="1">
          <mxGeometry x="155.5" y="310" width="90" height="30" as="geometry" />
        </mxCell>
        <mxCell id="QpHExHwspOhf1drX-hT4-17" style="edgeStyle=orthogonalEdgeStyle;rounded=0;orthogonalLoop=1;jettySize=auto;html=1;entryX=0.5;entryY=0;entryDx=0;entryDy=0;fontFamily=宋体;fontSize=13;" parent="1" source="QpHExHwspOhf1drX-hT4-7" target="QpHExHwspOhf1drX-hT4-8" edge="1">
          <mxGeometry relative="1" as="geometry" />
        </mxCell>
        <mxCell id="QpHExHwspOhf1drX-hT4-7" value="选择模型" style="rounded=0;whiteSpace=wrap;html=1;fontFamily=宋体;fontSize=13;" parent="1" vertex="1">
          <mxGeometry x="160.5" y="363" width="80" height="30" as="geometry" />
        </mxCell>
        <mxCell id="QpHExHwspOhf1drX-hT4-18" style="edgeStyle=orthogonalEdgeStyle;rounded=0;orthogonalLoop=1;jettySize=auto;html=1;entryX=0.5;entryY=0;entryDx=0;entryDy=0;fontFamily=宋体;fontSize=13;" parent="1" source="QpHExHwspOhf1drX-hT4-8" target="QpHExHwspOhf1drX-hT4-10" edge="1">
          <mxGeometry relative="1" as="geometry" />
        </mxCell>
        <mxCell id="QpHExHwspOhf1drX-hT4-8" value="开始执行" style="rounded=0;whiteSpace=wrap;html=1;fontFamily=宋体;fontSize=13;" parent="1" vertex="1">
          <mxGeometry x="160.5" y="419" width="80" height="30" as="geometry" />
        </mxCell>
        <mxCell id="QpHExHwspOhf1drX-hT4-19" style="edgeStyle=orthogonalEdgeStyle;rounded=0;orthogonalLoop=1;jettySize=auto;html=1;entryX=0.5;entryY=0;entryDx=0;entryDy=0;fontFamily=宋体;fontSize=13;" parent="1" source="QpHExHwspOhf1drX-hT4-10" target="QpHExHwspOhf1drX-hT4-11" edge="1">
          <mxGeometry relative="1" as="geometry" />
        </mxCell>
        <mxCell id="QpHExHwspOhf1drX-hT4-43" value="否" style="edgeLabel;html=1;align=center;verticalAlign=middle;resizable=0;points=[];fontFamily=宋体;fontSize=13;" parent="QpHExHwspOhf1drX-hT4-19" vertex="1" connectable="0">
          <mxGeometry x="-0.7885" y="-2" relative="1" as="geometry">
            <mxPoint x="1" y="5" as="offset" />
          </mxGeometry>
        </mxCell>
        <mxCell id="QpHExHwspOhf1drX-hT4-38" style="edgeStyle=orthogonalEdgeStyle;rounded=0;orthogonalLoop=1;jettySize=auto;html=1;entryX=0.5;entryY=0;entryDx=0;entryDy=0;fontFamily=宋体;fontSize=13;" parent="1" source="QpHExHwspOhf1drX-hT4-10" target="QpHExHwspOhf1drX-hT4-33" edge="1">
          <mxGeometry relative="1" as="geometry" />
        </mxCell>
        <mxCell id="QpHExHwspOhf1drX-hT4-42" value="是" style="edgeLabel;html=1;align=center;verticalAlign=middle;resizable=0;points=[];fontFamily=宋体;fontSize=13;" parent="QpHExHwspOhf1drX-hT4-38" vertex="1" connectable="0">
          <mxGeometry x="-0.904" y="3" relative="1" as="geometry">
            <mxPoint x="-1" y="1" as="offset" />
          </mxGeometry>
        </mxCell>
        <mxCell id="QpHExHwspOhf1drX-hT4-10" value="执行出错" style="rhombus;whiteSpace=wrap;html=1;fontFamily=宋体;fontSize=13;" parent="1" vertex="1">
          <mxGeometry x="160" y="472" width="81" height="47" as="geometry" />
        </mxCell>
        <mxCell id="QpHExHwspOhf1drX-hT4-20" style="edgeStyle=orthogonalEdgeStyle;rounded=0;orthogonalLoop=1;jettySize=auto;html=1;entryX=0.5;entryY=0;entryDx=0;entryDy=0;fontFamily=宋体;fontSize=13;" parent="1" source="QpHExHwspOhf1drX-hT4-11" target="QpHExHwspOhf1drX-hT4-13" edge="1">
          <mxGeometry relative="1" as="geometry">
            <mxPoint x="213.5" y="672" as="targetPoint" />
            <Array as="points">
              <mxPoint x="200.5" y="602" />
              <mxPoint x="266.5" y="602" />
            </Array>
          </mxGeometry>
        </mxCell>
        <mxCell id="QpHExHwspOhf1drX-hT4-11" value="保存结果&lt;span style=&quot;background-color: transparent; color: light-dark(rgb(0, 0, 0), rgb(255, 255, 255));&quot;&gt;并展示&lt;/span&gt;" style="rounded=0;whiteSpace=wrap;html=1;fontFamily=宋体;fontSize=13;" parent="1" vertex="1">
          <mxGeometry x="150" y="553" width="101" height="25" as="geometry" />
        </mxCell>
        <mxCell id="QpHExHwspOhf1drX-hT4-13" value="结束" style="rounded=1;whiteSpace=wrap;html=1;fontFamily=宋体;fontSize=13;" parent="1" vertex="1">
          <mxGeometry x="226.5" y="626" width="80" height="30" as="geometry" />
        </mxCell>
        <mxCell id="QpHExHwspOhf1drX-hT4-37" style="edgeStyle=orthogonalEdgeStyle;rounded=0;orthogonalLoop=1;jettySize=auto;html=1;entryX=0.5;entryY=0;entryDx=0;entryDy=0;fontFamily=宋体;fontSize=13;" parent="1" source="QpHExHwspOhf1drX-hT4-24" target="QpHExHwspOhf1drX-hT4-34" edge="1">
          <mxGeometry relative="1" as="geometry" />
        </mxCell>
        <mxCell id="QpHExHwspOhf1drX-hT4-24" value="保存错误信息" style="rounded=0;whiteSpace=wrap;html=1;fontFamily=宋体;fontSize=13;" parent="1" vertex="1">
          <mxGeometry x="287.25" y="459" width="88.5" height="30" as="geometry" />
        </mxCell>
        <mxCell id="QpHExHwspOhf1drX-hT4-36" style="edgeStyle=orthogonalEdgeStyle;rounded=0;orthogonalLoop=1;jettySize=auto;html=1;entryX=0.5;entryY=0;entryDx=0;entryDy=0;fontFamily=宋体;fontSize=13;" parent="1" source="QpHExHwspOhf1drX-hT4-33" target="QpHExHwspOhf1drX-hT4-24" edge="1">
          <mxGeometry relative="1" as="geometry" />
        </mxCell>
        <mxCell id="QpHExHwspOhf1drX-hT4-33" value="记录日志" style="rounded=0;whiteSpace=wrap;html=1;fontFamily=宋体;fontSize=13;" parent="1" vertex="1">
          <mxGeometry x="291.5" y="400" width="80" height="30" as="geometry" />
        </mxCell>
        <mxCell id="QpHExHwspOhf1drX-hT4-39" style="edgeStyle=orthogonalEdgeStyle;rounded=0;orthogonalLoop=1;jettySize=auto;html=1;entryX=0.5;entryY=0;entryDx=0;entryDy=0;fontFamily=宋体;fontSize=13;" parent="1" source="QpHExHwspOhf1drX-hT4-34" target="QpHExHwspOhf1drX-hT4-13" edge="1">
          <mxGeometry relative="1" as="geometry">
            <Array as="points">
              <mxPoint x="331.5" y="602" />
              <mxPoint x="266.5" y="602" />
            </Array>
          </mxGeometry>
        </mxCell>
        <mxCell id="QpHExHwspOhf1drX-hT4-34" value="发出toast提示" style="rounded=0;whiteSpace=wrap;html=1;fontFamily=宋体;fontSize=13;" parent="1" vertex="1">
          <mxGeometry x="284" y="514" width="95" height="30" as="geometry" />
        </mxCell>
        <mxCell id="VQWNfahwIAXLIbeWohpL-51" style="rounded=0;orthogonalLoop=1;jettySize=auto;html=1;entryX=0.5;entryY=0;entryDx=0;entryDy=0;fontFamily=宋体;" edge="1" parent="1" target="VQWNfahwIAXLIbeWohpL-50">
          <mxGeometry relative="1" as="geometry">
            <mxPoint x="576.5238095238094" y="120" as="sourcePoint" />
          </mxGeometry>
        </mxCell>
        <mxCell id="VQWNfahwIAXLIbeWohpL-55" style="edgeStyle=orthogonalEdgeStyle;rounded=0;orthogonalLoop=1;jettySize=auto;html=1;entryX=0.5;entryY=0;entryDx=0;entryDy=0;fontFamily=宋体;" edge="1" parent="1" source="VQWNfahwIAXLIbeWohpL-31" target="VQWNfahwIAXLIbeWohpL-35">
          <mxGeometry relative="1" as="geometry" />
        </mxCell>
        <mxCell id="VQWNfahwIAXLIbeWohpL-31" value="创建任务成功" style="rounded=0;whiteSpace=wrap;html=1;fontFamily=宋体;fontSize=13;" vertex="1" parent="1">
          <mxGeometry x="530.52" y="259.5" width="91.75" height="30" as="geometry" />
        </mxCell>
        <mxCell id="VQWNfahwIAXLIbeWohpL-57" style="edgeStyle=orthogonalEdgeStyle;rounded=0;orthogonalLoop=1;jettySize=auto;html=1;entryX=0.5;entryY=0;entryDx=0;entryDy=0;fontFamily=宋体;" edge="1" parent="1" source="VQWNfahwIAXLIbeWohpL-35" target="VQWNfahwIAXLIbeWohpL-56">
          <mxGeometry relative="1" as="geometry" />
        </mxCell>
        <mxCell id="VQWNfahwIAXLIbeWohpL-35" value="视频预处理" style="rounded=0;whiteSpace=wrap;html=1;fontFamily=宋体;fontSize=13;" vertex="1" parent="1">
          <mxGeometry x="524.27" y="310.5" width="104.25" height="30" as="geometry" />
        </mxCell>
        <mxCell id="VQWNfahwIAXLIbeWohpL-63" style="edgeStyle=orthogonalEdgeStyle;rounded=0;orthogonalLoop=1;jettySize=auto;html=1;entryX=0.5;entryY=0;entryDx=0;entryDy=0;fontFamily=宋体;" edge="1" parent="1" source="VQWNfahwIAXLIbeWohpL-40" target="VQWNfahwIAXLIbeWohpL-47">
          <mxGeometry relative="1" as="geometry">
            <Array as="points">
              <mxPoint x="633" y="448" />
            </Array>
          </mxGeometry>
        </mxCell>
        <mxCell id="VQWNfahwIAXLIbeWohpL-69" style="edgeStyle=orthogonalEdgeStyle;rounded=0;orthogonalLoop=1;jettySize=auto;html=1;entryX=0.5;entryY=0;entryDx=0;entryDy=0;fontFamily=宋体;" edge="1" parent="1" source="VQWNfahwIAXLIbeWohpL-40" target="VQWNfahwIAXLIbeWohpL-42">
          <mxGeometry relative="1" as="geometry">
            <Array as="points">
              <mxPoint x="517" y="448" />
            </Array>
          </mxGeometry>
        </mxCell>
        <mxCell id="VQWNfahwIAXLIbeWohpL-70" value="是" style="edgeLabel;html=1;align=center;verticalAlign=middle;resizable=0;points=[];fontFamily=宋体;" vertex="1" connectable="0" parent="VQWNfahwIAXLIbeWohpL-69">
          <mxGeometry x="0.0709" y="-1" relative="1" as="geometry">
            <mxPoint y="5" as="offset" />
          </mxGeometry>
        </mxCell>
        <mxCell id="VQWNfahwIAXLIbeWohpL-40" value="检测完成" style="rhombus;whiteSpace=wrap;html=1;fontFamily=宋体;fontSize=13;" vertex="1" parent="1">
          <mxGeometry x="535.89" y="424.5" width="81" height="47" as="geometry" />
        </mxCell>
        <mxCell id="VQWNfahwIAXLIbeWohpL-66" style="edgeStyle=orthogonalEdgeStyle;rounded=0;orthogonalLoop=1;jettySize=auto;html=1;entryX=0.5;entryY=0;entryDx=0;entryDy=0;fontFamily=宋体;" edge="1" parent="1" source="VQWNfahwIAXLIbeWohpL-42" target="VQWNfahwIAXLIbeWohpL-65">
          <mxGeometry relative="1" as="geometry" />
        </mxCell>
        <mxCell id="VQWNfahwIAXLIbeWohpL-42" value="保存检测结果" style="rounded=0;whiteSpace=wrap;html=1;fontFamily=宋体;fontSize=13;" vertex="1" parent="1">
          <mxGeometry x="470" y="493" width="94" height="30" as="geometry" />
        </mxCell>
        <mxCell id="VQWNfahwIAXLIbeWohpL-43" value="结束" style="rounded=1;whiteSpace=wrap;html=1;fontFamily=宋体;fontSize=13;" vertex="1" parent="1">
          <mxGeometry x="536.5" y="615" width="80" height="30" as="geometry" />
        </mxCell>
        <mxCell id="VQWNfahwIAXLIbeWohpL-53" style="edgeStyle=orthogonalEdgeStyle;rounded=0;orthogonalLoop=1;jettySize=auto;html=1;entryX=0.5;entryY=0;entryDx=0;entryDy=0;fontFamily=宋体;" edge="1" parent="1" source="VQWNfahwIAXLIbeWohpL-50" target="VQWNfahwIAXLIbeWohpL-52">
          <mxGeometry relative="1" as="geometry" />
        </mxCell>
        <mxCell id="VQWNfahwIAXLIbeWohpL-50" value="选择检测模型并配置任务参数" style="rounded=0;whiteSpace=wrap;html=1;fontFamily=宋体;fontSize=13;" vertex="1" parent="1">
          <mxGeometry x="479.69" y="161" width="193.62" height="30" as="geometry" />
        </mxCell>
        <mxCell id="VQWNfahwIAXLIbeWohpL-54" style="rounded=0;orthogonalLoop=1;jettySize=auto;html=1;entryX=0.5;entryY=0;entryDx=0;entryDy=0;fontFamily=宋体;" edge="1" parent="1" source="VQWNfahwIAXLIbeWohpL-52">
          <mxGeometry relative="1" as="geometry">
            <mxPoint x="576.5" y="259" as="targetPoint" />
          </mxGeometry>
        </mxCell>
        <mxCell id="VQWNfahwIAXLIbeWohpL-52" value="上传视频" style="rounded=0;whiteSpace=wrap;html=1;fontFamily=宋体;fontSize=13;" vertex="1" parent="1">
          <mxGeometry x="529.75" y="212" width="93.5" height="28" as="geometry" />
        </mxCell>
        <mxCell id="VQWNfahwIAXLIbeWohpL-22" value="开始" style="rounded=1;whiteSpace=wrap;html=1;fontFamily=宋体;fontSize=13;" vertex="1" parent="1">
          <mxGeometry x="536.5" y="109" width="80" height="30" as="geometry" />
        </mxCell>
        <mxCell id="VQWNfahwIAXLIbeWohpL-59" style="edgeStyle=orthogonalEdgeStyle;rounded=0;orthogonalLoop=1;jettySize=auto;html=1;entryX=0.5;entryY=0;entryDx=0;entryDy=0;fontFamily=宋体;" edge="1" parent="1" source="VQWNfahwIAXLIbeWohpL-56" target="VQWNfahwIAXLIbeWohpL-40">
          <mxGeometry relative="1" as="geometry">
            <mxPoint x="576.3950000000001" y="441.5" as="targetPoint" />
          </mxGeometry>
        </mxCell>
        <mxCell id="VQWNfahwIAXLIbeWohpL-56" value="调用python的gRPC检测接口&lt;div&gt;并传输模型参数及视频地址&lt;/div&gt;" style="rounded=0;whiteSpace=wrap;html=1;fontFamily=宋体;fontSize=13;" vertex="1" parent="1">
          <mxGeometry x="479.49" y="362.5" width="193.82" height="43" as="geometry" />
        </mxCell>
        <mxCell id="VQWNfahwIAXLIbeWohpL-67" style="edgeStyle=orthogonalEdgeStyle;rounded=0;orthogonalLoop=1;jettySize=auto;html=1;entryX=0.5;entryY=0;entryDx=0;entryDy=0;fontFamily=宋体;" edge="1" parent="1" source="VQWNfahwIAXLIbeWohpL-47" target="VQWNfahwIAXLIbeWohpL-65">
          <mxGeometry relative="1" as="geometry" />
        </mxCell>
        <mxCell id="VQWNfahwIAXLIbeWohpL-47" value="记录日志" style="rounded=0;whiteSpace=wrap;html=1;fontFamily=宋体;fontSize=13;" vertex="1" parent="1">
          <mxGeometry x="593.31" y="492" width="80" height="30" as="geometry" />
        </mxCell>
        <mxCell id="VQWNfahwIAXLIbeWohpL-64" value="否" style="edgeLabel;html=1;align=center;verticalAlign=middle;resizable=0;points=[];fontFamily=宋体;fontSize=13;" vertex="1" connectable="0" parent="1">
          <mxGeometry x="636.3077777777777" y="469" as="geometry">
            <mxPoint x="-3" y="4" as="offset" />
          </mxGeometry>
        </mxCell>
        <mxCell id="VQWNfahwIAXLIbeWohpL-68" style="edgeStyle=orthogonalEdgeStyle;rounded=0;orthogonalLoop=1;jettySize=auto;html=1;entryX=0.5;entryY=0;entryDx=0;entryDy=0;fontFamily=宋体;" edge="1" parent="1" source="VQWNfahwIAXLIbeWohpL-65" target="VQWNfahwIAXLIbeWohpL-43">
          <mxGeometry relative="1" as="geometry" />
        </mxCell>
        <mxCell id="VQWNfahwIAXLIbeWohpL-65" value="&lt;br&gt;&lt;span style=&quot;color: rgb(0, 0, 0); font-size: 13px; font-style: normal; font-variant-ligatures: normal; font-variant-caps: normal; font-weight: 400; letter-spacing: normal; orphans: 2; text-align: center; text-indent: 0px; text-transform: none; widows: 2; word-spacing: 0px; -webkit-text-stroke-width: 0px; white-space: normal; background-color: rgb(251, 251, 251); text-decoration-thickness: initial; text-decoration-style: initial; text-decoration-color: initial; float: none; display: inline !important;&quot;&gt;更新任务状态&lt;/span&gt;&lt;div&gt;&lt;br&gt;&lt;/div&gt;" style="rounded=0;whiteSpace=wrap;html=1;fontFamily=宋体;fontSize=13;" vertex="1" parent="1">
          <mxGeometry x="524.4499999999999" y="563" width="104.11" height="30" as="geometry" />
        </mxCell>
      </root>
    </mxGraphModel>
  </diagram>
</mxfile>
